<svg height="496pt" viewBox="0 -15 496 495" width="496pt" xmlns="http://www.w3.org/2000/svg"><path d="m456 376.5h-376c-17.601562 0-32-14.398438-32-32v24c0 17.601562 14.398438 32 32 32h376c17.601562 0 32-14.398438 32-32v-24c0 17.601562-14.398438 32-32 32zm0 0" fill="#ccd1d9"/><g fill="#fff"><path d="m368 176.5c8.800781 0 16 7.199219 16 16s-7.199219 16-16 16c-8.878906 0-16-7.199219-16-16s7.121094-16 16-16zm0 0"/><path d="m368 304.5c8.800781 0 16 7.199219 16 16s-7.199219 16-16 16c-8.878906 0-16-7.199219-16-16s7.121094-16 16-16zm0 0"/><path d="m368 240.5c8.800781 0 16 7.199219 16 16s-7.199219 16-16 16c-8.878906 0-16-7.199219-16-16s7.121094-16 16-16zm0 0"/><path d="m240 304.5c8.800781 0 16 7.199219 16 16s-7.199219 16-16 16c-8.878906 0-16-7.199219-16-16s7.121094-16 16-16zm0 0"/><path d="m304 304.5c8.800781 0 16 7.199219 16 16s-7.199219 16-16 16c-8.878906 0-16-7.199219-16-16s7.121094-16 16-16zm0 0"/><path d="m304 240.5c8.800781 0 16 7.199219 16 16s-7.199219 16-16 16c-8.878906 0-16-7.199219-16-16s7.121094-16 16-16zm0 0"/><path d="m240 240.5c8.800781 0 16 7.199219 16 16s-7.199219 16-16 16c-8.878906 0-16-7.199219-16-16s7.121094-16 16-16zm0 0"/><path d="m240 176.5c8.800781 0 16 7.199219 16 16s-7.199219 16-16 16c-8.878906 0-16-7.199219-16-16s7.121094-16 16-16zm0 0"/><path d="m304 176.5c8.800781 0 16 7.199219 16 16s-7.199219 16-16 16c-8.878906 0-16-7.199219-16-16s7.121094-16 16-16zm0 0"/></g><path d="m224 48.5h224v88h-224zm0 0" fill="#5d9cec"/><path d="m184 64.5v256c0 8.800781-7.199219 16-16 16h-64c-8.800781 0-16-7.199219-16-16v-256c0-8.800781 7.199219-16 16-16h64c8.800781 0 16 7.199219 16 16zm0 0" fill="#656d78"/><path d="m136 376.5h-56c-17.601562 0-32-14.398438-32-32v-304c0-17.601562 14.398438-32 32-32h376c17.601562 0 32 14.398438 32 32v304c0 17.601562-14.398438 32-32 32zm0-40h32c8.800781 0 16-7.199219 16-16v-256c0-8.800781-7.199219-16-16-16h-64c-8.800781 0-16 7.199219-16 16v256c0 8.800781 7.199219 16 16 16zm312-200v-88h-224v88zm-64 56c0-8.800781-7.199219-16-16-16-8.878906 0-16 7.199219-16 16s7.121094 16 16 16c8.800781 0 16-7.199219 16-16zm0 64c0-8.800781-7.199219-16-16-16-8.878906 0-16 7.199219-16 16s7.121094 16 16 16c8.800781 0 16-7.199219 16-16zm0 64c0-8.800781-7.199219-16-16-16-8.878906 0-16 7.199219-16 16s7.121094 16 16 16c8.800781 0 16-7.199219 16-16zm-64-128c0-8.800781-7.199219-16-16-16-8.878906 0-16 7.199219-16 16s7.121094 16 16 16c8.800781 0 16-7.199219 16-16zm0 64c0-8.800781-7.199219-16-16-16-8.878906 0-16 7.199219-16 16s7.121094 16 16 16c8.800781 0 16-7.199219 16-16zm0 64c0-8.800781-7.199219-16-16-16-8.878906 0-16 7.199219-16 16s7.121094 16 16 16c8.800781 0 16-7.199219 16-16zm-64-128c0-8.800781-7.199219-16-16-16-8.878906 0-16 7.199219-16 16s7.121094 16 16 16c8.800781 0 16-7.199219 16-16zm0 64c0-8.800781-7.199219-16-16-16-8.878906 0-16 7.199219-16 16s7.121094 16 16 16c8.800781 0 16-7.199219 16-16zm0 64c0-8.800781-7.199219-16-16-16-8.878906 0-16 7.199219-16 16s7.121094 16 16 16c8.800781 0 16-7.199219 16-16zm0 0" fill="#e6e9ed"/><path d="m456 384.5c-4.425781 0-8-3.574219-8-8s3.574219-8 8-8c13.230469 0 24-10.769531 24-24v-304c0-13.230469-10.769531-24-24-24h-376c-13.230469 0-24 10.769531-24 24v304c0 13.230469 10.769531 24 24 24 4.425781 0 8 3.574219 8 8s-3.574219 8-8 8c-22.054688 0-40-17.945312-40-40v-304c0-22.054688 17.945312-40 40-40h376c22.054688 0 40 17.945312 40 40v304c0 22.054688-17.945312 40-40 40zm0 0"/><path d="m80 408.5c-22.054688 0-40-17.945312-40-40v-24c0-4.425781 3.574219-8 8-8s8 3.574219 8 8v24c0 13.230469 10.769531 24 24 24 4.425781 0 8 3.574219 8 8s-3.574219 8-8 8zm0 0"/><path d="m456 408.5c-4.425781 0-8-3.574219-8-8s3.574219-8 8-8c13.230469 0 24-10.769531 24-24v-24c0-4.425781 3.574219-8 8-8s8 3.574219 8 8v24c0 22.054688-17.945312 40-40 40zm0 0"/><path d="m168 344.5h-64c-13.230469 0-24-10.769531-24-24v-256c0-13.230469 10.769531-24 24-24h64c13.230469 0 24 10.769531 24 24v256c0 13.230469-10.769531 24-24 24zm-64-288c-4.414062 0-8 3.59375-8 8v256c0 4.414062 3.585938 8 8 8h64c4.414062 0 8-3.585938 8-8v-256c0-4.40625-3.585938-8-8-8zm0 0"/><path d="m448 144.5h-224c-4.425781 0-8-3.585938-8-8v-88c0-4.414062 3.574219-8 8-8h224c4.425781 0 8 3.585938 8 8v88c0 4.414062-3.574219 8-8 8zm-216-16h208v-72h-208zm0 0"/><path d="m240 216.5c-13.230469 0-24-10.769531-24-24s10.769531-24 24-24 24 10.769531 24 24-10.769531 24-24 24zm0-32c-4.414062 0-8 3.59375-8 8s3.585938 8 8 8 8-3.59375 8-8-3.585938-8-8-8zm0 0"/><path d="m304 216.5c-13.230469 0-24-10.769531-24-24s10.769531-24 24-24 24 10.769531 24 24-10.769531 24-24 24zm0-32c-4.414062 0-8 3.59375-8 8s3.585938 8 8 8 8-3.59375 8-8-3.585938-8-8-8zm0 0"/><path d="m368 216.5c-13.230469 0-24-10.769531-24-24s10.769531-24 24-24 24 10.769531 24 24-10.769531 24-24 24zm0-32c-4.414062 0-8 3.59375-8 8s3.585938 8 8 8 8-3.59375 8-8-3.585938-8-8-8zm0 0"/><path d="m240 280.5c-13.230469 0-24-10.769531-24-24s10.769531-24 24-24 24 10.769531 24 24-10.769531 24-24 24zm0-32c-4.414062 0-8 3.585938-8 8s3.585938 8 8 8 8-3.585938 8-8-3.585938-8-8-8zm0 0"/><path d="m304 280.5c-13.230469 0-24-10.769531-24-24s10.769531-24 24-24 24 10.769531 24 24-10.769531 24-24 24zm0-32c-4.414062 0-8 3.585938-8 8s3.585938 8 8 8 8-3.585938 8-8-3.585938-8-8-8zm0 0"/><path d="m368 280.5c-13.230469 0-24-10.769531-24-24s10.769531-24 24-24 24 10.769531 24 24-10.769531 24-24 24zm0-32c-4.414062 0-8 3.585938-8 8s3.585938 8 8 8 8-3.585938 8-8-3.585938-8-8-8zm0 0"/><path d="m240 344.5c-13.230469 0-24-10.769531-24-24s10.769531-24 24-24 24 10.769531 24 24-10.769531 24-24 24zm0-32c-4.414062 0-8 3.585938-8 8s3.585938 8 8 8 8-3.585938 8-8-3.585938-8-8-8zm0 0"/><path d="m304 344.5c-13.230469 0-24-10.769531-24-24s10.769531-24 24-24 24 10.769531 24 24-10.769531 24-24 24zm0-32c-4.414062 0-8 3.585938-8 8s3.585938 8 8 8 8-3.585938 8-8-3.585938-8-8-8zm0 0"/><path d="m368 344.5c-13.230469 0-24-10.769531-24-24s10.769531-24 24-24 24 10.769531 24 24-10.769531 24-24 24zm0-32c-4.414062 0-8 3.585938-8 8s3.585938 8 8 8 8-3.585938 8-8-3.585938-8-8-8zm0 0"/><path d="m448.238281 248.5c-4.421875 0-8.039062-3.574219-8.039062-8 0-4.414062 3.535156-8 7.953125-8h.085937c4.417969 0 8 3.585938 8 8 0 4.425781-3.582031 8-8 8zm0 0"/><path d="m448.238281 280.5c-4.421875 0-8.039062-3.574219-8.039062-8s3.535156-8 7.953125-8h.085937c4.417969 0 8 3.574219 8 8s-3.582031 8-8 8zm0 0"/><path d="m424.238281 248.5c-4.421875 0-8.039062-3.574219-8.039062-8 0-4.414062 3.535156-8 7.953125-8h.085937c4.417969 0 8 3.585938 8 8 0 4.425781-3.582031 8-8 8zm0 0"/><path d="m424.238281 280.5c-4.421875 0-8.039062-3.574219-8.039062-8s3.535156-8 7.953125-8h.085937c4.417969 0 8 3.574219 8 8s-3.582031 8-8 8zm0 0"/><path d="m448 344.5c-4.425781 0-8-3.574219-8-8v-32c0-4.425781 3.574219-8 8-8s8 3.574219 8 8v32c0 4.425781-3.574219 8-8 8zm0 0"/><path d="m424 344.5c-4.425781 0-8-3.574219-8-8v-32c0-4.425781 3.574219-8 8-8s8 3.574219 8 8v32c0 4.425781-3.574219 8-8 8zm0 0"/><path d="m448 216.5c-4.425781 0-8-3.585938-8-8v-32c0-4.414062 3.574219-8 8-8s8 3.585938 8 8v32c0 4.414062-3.574219 8-8 8zm0 0"/><path d="m424 216.5c-4.425781 0-8-3.585938-8-8v-32c0-4.414062 3.574219-8 8-8s8 3.585938 8 8v32c0 4.414062-3.574219 8-8 8zm0 0"/><path d="m144 384.5h-16c-4.425781 0-8-3.574219-8-8s3.574219-8 8-8h16c4.425781 0 8 3.574219 8 8s-3.574219 8-8 8zm0 0"/><path d="m144 408.5h-16c-4.425781 0-8-3.574219-8-8s3.574219-8 8-8h16c4.425781 0 8 3.574219 8 8s-3.574219 8-8 8zm0 0"/><path d="m144 432.5h-16c-4.425781 0-8-3.574219-8-8s3.574219-8 8-8h16c4.425781 0 8 3.574219 8 8s-3.574219 8-8 8zm0 0"/><path d="m112 464.5c-4.425781 0-8-3.574219-8-8v-16c0-4.425781 3.574219-8 8-8s8 3.574219 8 8v16c0 4.425781-3.574219 8-8 8zm0 0"/><path d="m88 464.5c-4.425781 0-8-3.574219-8-8v-16c0-4.425781 3.574219-8 8-8s8 3.574219 8 8v16c0 4.425781-3.574219 8-8 8zm0 0"/><path d="m64 464.5c-4.425781 0-8-3.574219-8-8v-16c0-4.425781 3.574219-8 8-8s8 3.574219 8 8v16c0 4.425781-3.574219 8-8 8zm0 0"/><path d="m40 464.5c-4.425781 0-8-3.574219-8-8v-16c0-4.425781 3.574219-8 8-8s8 3.574219 8 8v16c0 4.425781-3.574219 8-8 8zm0 0"/><path d="m136 440.5c-4.425781 0-8-3.574219-8-8v-96c0-4.425781 3.574219-8 8-8s8 3.574219 8 8v96c0 4.425781-3.574219 8-8 8zm0 0"/><path d="m24 408.5h-16c-4.425781 0-8-3.574219-8-8s3.574219-8 8-8h16c4.425781 0 8 3.574219 8 8s-3.574219 8-8 8zm0 0"/><path d="m24 384.5h-16c-4.425781 0-8-3.574219-8-8s3.574219-8 8-8h16c4.425781 0 8 3.574219 8 8s-3.574219 8-8 8zm0 0"/><path d="m24 360.5h-16c-4.425781 0-8-3.574219-8-8s3.574219-8 8-8h16c4.425781 0 8 3.574219 8 8s-3.574219 8-8 8zm0 0"/><path d="m24 432.5h-16c-4.425781 0-8-3.574219-8-8s3.574219-8 8-8h16c4.425781 0 8 3.574219 8 8s-3.574219 8-8 8zm0 0"/><path d="m16 440.5c-4.425781 0-8-3.574219-8-8v-96c0-4.425781 3.574219-8 8-8s8 3.574219 8 8v96c0 4.425781-3.574219 8-8 8zm0 0"/><path d="m112 384.5h-32c-4.425781 0-8-3.574219-8-8s3.574219-8 8-8h32c4.425781 0 8 3.574219 8 8s-3.574219 8-8 8zm0 0"/><path d="m112 408.5h-32c-4.425781 0-8-3.574219-8-8s3.574219-8 8-8h32c4.425781 0 8 3.574219 8 8s-3.574219 8-8 8zm0 0"/><path d="m456 384.5h-296c-4.425781 0-8-3.574219-8-8s3.574219-8 8-8h296c4.425781 0 8 3.574219 8 8s-3.574219 8-8 8zm0 0"/><path d="m456 408.5h-296c-4.425781 0-8-3.574219-8-8s3.574219-8 8-8h296c4.425781 0 8 3.574219 8 8s-3.574219 8-8 8zm0 0"/><path d="m120 456.5c-4.425781 0-8-3.574219-8-8s3.574219-8 8-8c4.414062 0 8-3.585938 8-8 0-4.425781 3.574219-8 8-8s8 3.574219 8 8c0 13.230469-10.769531 24-24 24zm0 0"/><path d="m32 456.5c-13.230469 0-24-10.769531-24-24 0-4.425781 3.574219-8 8-8s8 3.574219 8 8c0 4.414062 3.585938 8 8 8 4.425781 0 8 3.574219 8 8s-3.574219 8-8 8zm0 0"/><path d="m15.992188 344.5c-4.425782 0-8-3.574219-8-8 0-13.230469 10.769531-24 24-24 4.421874 0 8 3.574219 8 8s-3.578126 8-8 8c-4.417969 0-8 3.585938-8 8 0 4.425781-3.578126 8-8 8zm0 0"/><path d="m120 456.5h-88c-4.425781 0-8-3.574219-8-8s3.574219-8 8-8h88c4.425781 0 8 3.574219 8 8s-3.574219 8-8 8zm0 0"/><path d="m48 328.5h-16.007812c-4.425782 0-8-3.574219-8-8s3.574218-8 8-8h16.007812c4.425781 0 8 3.574219 8 8s-3.574219 8-8 8zm0 0"/><path d="m136 248.5c-4.425781 0-8-3.574219-8-8v-104c0-4.414062 3.574219-8 8-8s8 3.585938 8 8v104c0 4.425781-3.574219 8-8 8zm0 0"/><path d="m400 88.5h-128c-4.425781 0-8-3.585938-8-8s3.574219-8 8-8h128c4.425781 0 8 3.585938 8 8s-3.574219 8-8 8zm0 0"/><path d="m360 112.5h-48c-4.425781 0-8-3.585938-8-8s3.574219-8 8-8h48c4.425781 0 8 3.585938 8 8s-3.574219 8-8 8zm0 0"/></svg>