<?xml version="1.0" encoding="iso-8859-1"?>
<!-- Generator: Adobe Illustrator 19.0.0, SVG Export Plug-In . SVG Version: 6.00 Build 0)  -->
<svg version="1.1" id="Layer_1" xmlns="http://www.w3.org/2000/svg" xmlns:xlink="http://www.w3.org/1999/xlink" x="0px" y="0px"
	 viewBox="0 0 498.4 498.4" style="enable-background:new 0 0 498.4 498.4;" xml:space="preserve">
<circle style="fill:#28EAA0;" cx="249.2" cy="187.2" r="164"/>
<path style="fill:#F9A908;" d="M457.2,188c0-13.6-8-24.8-20-29.6c-4.8-32.8-16-56.8-30.4-56.8c-8,0-14.4,11.2-20,19.2h-65.6V70.4
	c8-5.6,18.4-12.8,18.4-20c0-13.6-24-25.6-56.8-30.4C278,8,266,0,253.2,0c-13.6,0-24.8,8-29.6,20c-32.8,4.8-56.8,16-56.8,30.4
	c0,8,3.2,15.2,19.2,20.8v49.6h-73.6c-5.6-8-12.8-19.2-20-19.2c-13.6,0-25.6,24-30.4,56.8c-12,4.8-20,16-20,29.6s8,24.8,20,29.6
	c4.8,32.8,16,57.6,30.4,57.6c8,0,14.4-10.4,20-18.4h72.8v170.4c-16,5.6-19.2,12.8-19.2,20.8c0,13.6,24,25.6,56.8,30.4
	c4.8,12,16,20,29.6,20c13.6,0,24.8-8,29.6-20c32.8-4.8,57.6-16,57.6-30.4c0-8-10.4-14.4-18.4-20V256.8h65.6c5.6,8,12.8,18.4,20,18.4
	c13.6,0,25.6-24,30.4-56.8C448.4,213.6,457.2,201.6,457.2,188z"/>
<path style="fill:#E88705;" d="M321.2,424.8v-168h65.6c5.6,8,12.8,18.4,20,18.4c13.6,0,25.6-24,30.4-56.8c12-4.8,20-16.8,20-29.6
	s-8-24.8-20-29.6c-4.8-32.8-16-56.8-30.4-56.8c-8,0-14.4,11.2-20,19.2h-65.6V70.4c8-5.6,18.4-12.8,18.4-20c0-13.6-24-25.6-56.8-30.4
	C278,8,266,0,253.2,0c-13.6,0-24.8,8-29.6,20c-32.8,4.8-56.8,16-56.8,30.4c0,8,3.2,15.2,19.2,20.8v49.6h-73.6
	c-5.6-8-12.8-19.2-20-19.2"/>
<path style="fill:#D87805;" d="M321.2,256.8h65.6c5.6,8,12.8,18.4,20,18.4c13.6,0,25.6-24,30.4-56.8c12-4.8,20-16.8,20-29.6
	s-8-24.8-20-29.6c-4.8-32.8-16-56.8-30.4-56.8c-8,0-14.4,11.2-20,19.2h-65.6V70.4c8-5.6,18.4-12.8,18.4-20c0-13.6-24-25.6-56.8-30.4
	C278,8,266,0,253.2,0c-13.6,0-24.8,8-29.6,20c-32.8,4.8-56.8,16-56.8,30.4c0,8,3.2,15.2,19.2,20.8v49.6"/>
<g>
	<path style="fill:#F7D74F;" d="M321.2,136.8H386c5.6-8,12.8-18.4,20-18.4c13.6,0,25.6,24,30.4,57.6c8.8,4,16,12,18.4,20.8
		c0.8-3.2,1.6-5.6,1.6-8.8c0-13.6-8-24.8-20-29.6c-4.8-32.8-16-56.8-30.4-56.8c-8,0-14.4,11.2-20,19.2h-64.8V136.8z"/>
	<path style="fill:#F7D74F;" d="M222.8,37.6c4.8-12,16-20,29.6-20c13.6,0,24.8,8,29.6,20c25.6,3.2,45.6,11.2,53.6,21.6
		c2.4-3.2,4-5.6,4-8.8c0-13.6-24-25.6-56.8-30.4C278,8,266,0,253.2,0c-13.6,0-24.8,8-29.6,20c-32.8,4.8-56.8,16-56.8,30.4
		c0,3.2,1.6,6.4,3.2,8.8C177.2,49.6,197.2,41.6,222.8,37.6z"/>
	<path style="fill:#F7D74F;" d="M61.2,176c4.8-32.8,16-57.6,30.4-57.6c8,0,14.4,10.4,20,18.4h73.6v-16h-73.6
		c-5.6-8-12.8-19.2-20-19.2c-13.6,0-25.6,24-30.4,56.8c-12,4.8-20,16-20,29.6c0,3.2,0.8,6.4,1.6,8.8C45.2,188,52.4,180,61.2,176z"/>
	<path style="fill:#F7D74F;" d="M185.2,444.8v-17.6c-16,5.6-19.2,12.8-19.2,20.8c0,3.2,1.6,6.4,3.2,8.8
		C172.4,452,177.2,448.8,185.2,444.8z"/>
	<path style="fill:#F7D74F;" d="M321.2,427.2v17.6c8,3.2,12,7.2,15.2,11.2c2.4-3.2,4-5.6,4-8.8C339.6,440,329.2,432.8,321.2,427.2z"
		/>
</g>
<g>
	<circle style="fill:#FFEB97;" cx="249.2" cy="188.8" r="8.8"/>
	<circle style="fill:#FFEB97;" cx="249.2" cy="237.6" r="8.8"/>
	<circle style="fill:#FFEB97;" cx="249.2" cy="285.6" r="8.8"/>
</g>
<g>
</g>
<g>
</g>
<g>
</g>
<g>
</g>
<g>
</g>
<g>
</g>
<g>
</g>
<g>
</g>
<g>
</g>
<g>
</g>
<g>
</g>
<g>
</g>
<g>
</g>
<g>
</g>
<g>
</g>
</svg>
