<?xml version="1.0"?>
<svg xmlns="http://www.w3.org/2000/svg" height="512px" viewBox="0 -58 512 512" width="512px"><path d="m504.5 228.605469c4.144531 0 7.5-3.359375 7.5-7.5v-128.90625c0-15.164063-12.335938-27.5-27.5-27.5h-329.761719l-62.929687-58.355469c-9.375-8.691406-23.792969-8.421875-32.828125.617188-9.039063 9.039062-9.308594 23.457031-.621094 32.828124l23.097656 24.910157h-53.957031c-15.164062 0-27.5 12.335937-27.5 27.5v277.003906c0 15.164063 12.335938 27.5 27.5 27.5h457c15.164062 0 27.5-12.335937 27.5-27.5v-113.574219c0-4.144531-3.355469-7.5-7.5-7.5s-7.5 3.355469-7.5 7.5v113.574219c0 6.894531-5.605469 12.5-12.5 12.5h-457c-6.894531 0-12.5-5.605469-12.5-12.5v-277.003906c0-6.894531 5.605469-12.5 12.5-12.5h67.867188l20.640624 22.257812h-58.578124c-9.648438 0-17.5 7.851563-17.5 17.5v222.484375c0 9.652344 7.851562 17.5 17.5 17.5h229.308593c4.144531 0 7.5-3.355468 7.5-7.5 0-4.140625-3.355469-7.5-7.5-7.5h-229.308593c-1.375 0-2.5-1.121094-2.5-2.5v-222.484375c0-1.375 1.125-2.5 2.5-2.5h72.488281l39.757812 42.875c2.296875 2.480469 5.21875 4.300781 8.457031 5.273438l29.929688 8.976562c10.835938 3.253907 21.292969-7.195312 18.039062-18.035156l-8.980468-29.933594c-.96875-3.238281-2.792969-6.160156-5.269532-8.457031l-.753906-.699219h40.640625c4.144531 0 7.5-3.355469 7.5-7.5 0-4.140625-3.355469-7.5-7.5-7.5h-56.070312c-.238281 0-.472657.015625-.707031.035157l-24.046876-22.292969h313.585938c6.894531 0 12.5 5.605469 12.5 12.5v128.90625c0 4.140625 3.355469 7.5 7.5 7.5zm-434.914062-211.039063c3.308593-3.308594 8.589843-3.40625 12.019531-.226562l16.824219 15.597656-13.472657 13.472656-15.597656-16.820312c-3.183594-3.433594-3.082031-8.710938.226563-12.023438zm112.855468 133.167969c-.675781-.203125-1.289062-.582031-1.769531-1.101563l-85.507813-92.214843 14.269532-14.273438 92.21875 85.511719c.519531.480469.898437 1.089844 1.101562 1.765625l8.707032 29.019531zm0 0" fill="#FFFFFF"/><path d="m321.261719 359.441406h92.6875c9.648437 0 17.5-7.847656 17.5-17.5v-222.484375c0-9.648437-7.851563-17.5-17.5-17.5h-127.6875c-4.144531 0-7.5 3.359375-7.5 7.5 0 4.144531 3.355469 7.5 7.5 7.5h127.6875c1.378906 0 2.5 1.125 2.5 2.5v222.484375c0 1.378906-1.121094 2.5-2.5 2.5h-92.6875c-4.144531 0-7.5 3.359375-7.5 7.5 0 4.144532 3.355469 7.5 7.5 7.5zm0 0" fill="#FFFFFF"/><path d="m474 131.640625h-22c-4.144531 0-7.5 3.355469-7.5 7.5 0 4.140625 3.355469 7.5 7.5 7.5h22c4.144531 0 7.5-3.359375 7.5-7.5 0-4.144531-3.355469-7.5-7.5-7.5zm0 0" fill="#FFFFFF"/><path d="m474 151.285156h-22c-4.144531 0-7.5 3.359375-7.5 7.5s3.355469 7.5 7.5 7.5h22c4.144531 0 7.5-3.359375 7.5-7.5s-3.355469-7.5-7.5-7.5zm0 0" fill="#FFFFFF"/><path d="m474 170.929688h-22c-4.144531 0-7.5 3.359374-7.5 7.5 0 4.144531 3.355469 7.5 7.5 7.5h22c4.144531 0 7.5-3.355469 7.5-7.5 0-4.140626-3.355469-7.5-7.5-7.5zm0 0" fill="#FFFFFF"/><path d="m474 190.578125h-22c-4.144531 0-7.5 3.359375-7.5 7.5s3.355469 7.5 7.5 7.5h22c4.144531 0 7.5-3.359375 7.5-7.5s-3.355469-7.5-7.5-7.5zm0 0" fill="#FFFFFF"/><path d="m463 263.484375c-10.199219 0-18.5 8.296875-18.5 18.5v36.050781c0 10.199219 8.300781 18.5 18.5 18.5s18.5-8.300781 18.5-18.5v-36.050781c0-10.203125-8.300781-18.5-18.5-18.5zm3.5 54.550781c0 1.929688-1.570312 3.5-3.5 3.5s-3.5-1.570312-3.5-3.5v-36.050781c0-1.929687 1.570312-3.5 3.5-3.5s3.5 1.570313 3.5 3.5zm0 0" fill="#FFFFFF"/><path d="m167.550781 104.929688c-2.929687-2.929688-7.675781-2.929688-10.605469 0-2.929687 2.925781-2.929687 7.675781 0 10.605468l8.917969 8.914063c1.464844 1.464843 3.382813 2.199219 5.300781 2.199219 1.921876 0 3.839844-.734376 5.304688-2.199219 2.929688-2.925781 2.929688-7.675781 0-10.605469zm0 0" fill="#FFFFFF"/><path d="m190.101562 312.757812c2.003907 2.605469 5.574219 3.613282 8.644532 2.429688l181.226562-69.851562c3.867188-1.488282 5.792969-5.832032 4.300782-9.695313-1.488282-3.863281-5.828126-5.789063-9.695313-4.300781l-157.546875 60.726562 85.304688-117.449218c4.148437-5.71875-1.589844-13.6875-8.328126-11.558594l-199.566406 62.996094c-3.949218 1.246093-6.140625 5.460937-4.894531 9.410156 1.246094 3.949218 5.460937 6.140625 9.410156 4.894531l177.867188-56.148437-86.84375 119.570312c-1.953125 2.6875-1.90625 6.34375.121093 8.976562zm0 0" fill="#FFFFFF"/></svg>
